<svg height='300px' width='300px'  fill="#000000" xmlns="http://www.w3.org/2000/svg" xmlns:xlink="http://www.w3.org/1999/xlink" version="1.1" x="0px" y="0px" viewBox="0 0 100 100" style="enable-background:new 0 0 100 100;" xml:space="preserve"><g><path d="M45.8,9.4V18c-4.9,1.8-8.4,6.4-8.4,11.9s3.5,10.1,8.4,11.9v49c0,2.3,1.9,4.2,4.3,4.2c2.4,0,4.3-1.9,4.3-4.3   v-49c4.9-1.8,8.4-6.4,8.4-11.9S59.2,19.8,54.3,18V9.3C54.3,6.9,52.4,5,50,5C47.6,5,45.8,7,45.8,9.4z"></path><path d="M78.2,9.4l0,49.8c-4.9,1.8-8.4,6.4-8.4,11.9c0,5.5,3.5,10.1,8.4,11.9v7.8c0,2.4,1.9,4.3,4.2,4.3   c2.4,0,4.3-1.9,4.3-4.3v-7.9c4.9-1.7,8.4-6.3,8.4-11.8S91.5,61,86.6,59.1l0-49.8C86.7,7,84.8,5,82.3,5C80.1,5,78.2,7,78.2,9.4z"></path><path d="M21.9,90.8V67.9c4.9-1.8,8.4-6.4,8.4-11.9S26.8,46,21.9,44.1V9.4C21.9,7,20,5,17.6,5S13.3,7,13.3,9.4v34.8   C8.5,46,5,50.5,5,56s3.5,10.1,8.4,11.9v22.8c0,2.4,1.9,4.3,4.3,4.3C20,95,21.9,93.2,21.9,90.8z"></path></g></svg>