<svg height='300px' width='300px'  fill="#000000" xmlns:dc="http://purl.org/dc/elements/1.1/" xmlns:cc="http://creativecommons.org/ns#" xmlns:rdf="http://www.w3.org/1999/02/22-rdf-syntax-ns#" xmlns:svg="http://www.w3.org/2000/svg" xmlns="http://www.w3.org/2000/svg" xmlns:sodipodi="http://sodipodi.sourceforge.net/DTD/sodipodi-0.dtd" xmlns:inkscape="http://www.inkscape.org/namespaces/inkscape" viewBox="0 0 511.99998 511.99998" version="1.1" x="0px" y="0px"><g transform="translate(-91.214475,-152.15558)"><path style="opacity:1;fill:#000000;fill-opacity:1;fill-rule:evenodd;stroke:none;stroke-width:69.24900055;stroke-linecap:butt;stroke-linejoin:round;stroke-miterlimit:4;stroke-dasharray:none;stroke-opacity:1" d="m 173.05987,246.94259 c -9.83108,0 -17.74399,7.93156 -17.74399,17.78516 l 0,242.57617 -34.59932,-29.09961 c -3.33249,-2.80269 -7.36656,-4.18815 -11.38467,-4.22266 -5.16612,-0.0444 -10.307007,2.14697 -13.902231,6.44141 -6.391518,7.63456 -5.404236,18.93759 2.212872,25.34375 l 27.499769,23.1289 0,0.002 19.41781,16.33008 14.953,12.57617 c 0.0103,0.009 0.0209,0.0167 0.0312,0.0254 l 13.71473,11.5332 0.004,0.006 0.004,-0.006 13.7245,-11.54297 7.23431,-6.08203 27.15993,-22.83984 -0.002,-0.002 27.49977,-23.1289 c 7.61711,-6.40616 8.60439,-17.70919 2.21287,-25.34375 -6.39151,-7.63456 -17.66783,-8.62491 -25.28493,-2.21875 l -34.59933,29.09961 0,-242.57617 c 0,-9.8536 -7.91487,-17.78516 -17.74594,-17.78516 l -0.40625,0 z m 132.43249,3.57227 c -11.07991,0 -19.99984,8.92 -19.99984,20 0,11.07999 8.91993,20 19.99984,20 l 277.72228,0 c 11.0799,0 19.99983,-8.92001 19.99983,-20 0,-11.08 -8.91993,-20 -19.99983,-20 l -277.72228,0 z m 0,91.33789 c -11.07991,0 -19.99984,8.92 -19.99984,20 0,11.08 8.91993,20 19.99984,20 l 216.62122,0 c 11.07991,0 19.99983,-8.92 19.99983,-20 0,-11.08 -8.91992,-20 -19.99983,-20 l -216.62122,0 z m 0,91.33593 c -11.07991,0 -19.99984,8.92 -19.99984,20 0,11.08 8.91993,20 19.99984,20 l 155.52212,0 c 11.07991,0 19.99983,-8.92 19.99983,-20 0,-11.08 -8.91992,-20 -19.99983,-20 l -155.52212,0 z m 0,91.33789 c -11.07991,0 -19.99984,8.92 -19.99984,20 0,11.08 8.91993,20 19.99984,20 l 94.42107,0 c 11.07991,0 19.99984,-8.92 19.99984,-20 0,-11.08 -8.91993,-20 -19.99984,-20 l -94.42107,0 z"></path></g></svg>